<svg width="38" height="32" viewBox="0 0 38 32" fill="none" xmlns="http://www.w3.org/2000/svg">
<g filter="url(#filter0_d_116_21)">
<mask id="path-1-inside-1_116_21" fill="white">
<path d="M24 18H6V16H24V18ZM24 13H6V11H24V13ZM24 8H6V6H24V8Z"/>
</mask>
<path d="M24 18H6V16H24V18ZM24 13H6V11H24V13ZM24 8H6V6H24V8Z" fill="black"/>
<path d="M24 18V20H26V18H24ZM6 18H4V20H6V18ZM6 16V14H4V16H6ZM24 16H26V14H24V16ZM24 13V15H26V13H24ZM6 13H4V15H6V13ZM6 11V9H4V11H6ZM24 11H26V9H24V11ZM24 8V10H26V8H24ZM6 8H4V10H6V8ZM6 6V4H4V6H6ZM24 6H26V4H24V6ZM24 16H6V20H24V16ZM8 18V16H4V18H8ZM6 18H24V14H6V18ZM22 16V18H26V16H22ZM24 11H6V15H24V11ZM8 13V11H4V13H8ZM6 13H24V9H6V13ZM22 11V13H26V11H22ZM24 6H6V10H24V6ZM8 8V6H4V8H8ZM6 8H24V4H6V8ZM22 6V8H26V6H22Z" fill="black" mask="url(#path-1-inside-1_116_21)"/>
</g>
<defs>
<filter id="filter0_d_116_21" x="-3" y="-6" width="44" height="44" filterUnits="userSpaceOnUse" color-interpolation-filters="sRGB">
<feFlood flood-opacity="0" result="BackgroundImageFix"/>
<feColorMatrix in="SourceAlpha" type="matrix" values="0 0 0 0 0 0 0 0 0 0 0 0 0 0 0 0 0 0 127 0" result="hardAlpha"/>
<feOffset dx="4" dy="4"/>
<feGaussianBlur stdDeviation="5"/>
<feComposite in2="hardAlpha" operator="out"/>
<feColorMatrix type="matrix" values="0 0 0 0 0 0 0 0 0 0 0 0 0 0 0 0 0 0 0.25 0"/>
<feBlend mode="normal" in2="BackgroundImageFix" result="effect1_dropShadow_116_21"/>
<feBlend mode="normal" in="SourceGraphic" in2="effect1_dropShadow_116_21" result="shape"/>
</filter>
</defs>
</svg>
